<svg width="104" height="100" viewBox="0 0 104 100" fill="none" xmlns="http://www.w3.org/2000/svg">
<rect x="2" width="100" height="100" rx="30" fill="#DD5E5E"/>
<path d="M22.585 54.355C22.585 43.7017 25.1917 35.5133 30.405 29.79C35.5617 24.0667 42.7583 21.205 51.995 21.205C61.2317 21.205 68.5417 23.9817 73.925 29.535C79.3083 35.0883 82 43.5883 82 55.035V74.755H22.585V54.355ZM52.25 31.32C38.65 31.32 31.85 39.1117 31.85 54.695V64.725H72.565V53.59C72.565 46.3933 70.865 40.8967 67.465 37.1C64.0083 33.2467 58.9367 31.32 52.25 31.32Z" fill="black"/>
<path d="M32.047 50.668C32.047 53.354 32.6 55.566 33.706 57.304C34.812 59.042 36.4973 59.911 38.762 59.911C40.974 59.911 42.6857 59.042 43.897 57.304C45.0557 55.566 46.3197 51.8793 47.689 46.244C49.0583 40.556 50.9807 36.29 53.456 33.446C55.9313 30.5493 59.5917 29.101 64.437 29.101C69.2297 29.101 73.127 30.918 76.129 34.552C79.131 38.186 80.632 42.9523 80.632 48.851C80.632 57.4883 77.6563 65.1513 71.705 71.84L64.674 65.994C69.5193 60.4113 71.942 54.618 71.942 48.614C71.942 45.612 71.31 43.242 70.046 41.504C68.7293 39.7133 67.0177 38.818 64.911 38.818C62.7517 38.818 61.0927 39.6607 59.934 41.346C58.7227 42.9787 57.643 45.8227 56.695 49.878C55.6943 53.9333 54.799 57.0143 54.009 59.121C53.1663 61.2277 52.0867 63.0973 50.77 64.73C48.2947 67.9953 44.5027 69.628 39.394 69.628C34.2853 69.628 30.3617 67.7847 27.623 64.098C24.8317 60.3587 23.436 55.7503 23.436 50.273C23.436 46.7443 24.0153 43.242 25.174 39.766C26.3327 36.29 27.9653 33.288 30.072 30.76L37.103 35.737C35.6283 37.3697 34.417 39.5817 33.469 42.373C32.521 45.1643 32.047 47.9293 32.047 50.668Z" fill="black"/>
</svg>
